<svg class="svg-icon" style="width: 1em; height: 1em;vertical-align: middle;fill: currentColor;overflow: hidden;" viewBox="0 0 1024 1024" version="1.1" xmlns="http://www.w3.org/2000/svg"><path d="M300.571429 796.571429q0 30.285714-21.428572 51.714285T227.428571 869.714286q-29.714286 0-51.428571-21.714286t-21.714286-51.428571q0-30.285714 21.428572-51.714286T227.428571 723.428571t51.714286 21.428572T300.571429 796.571429z m284.571428 117.714285q0 30.285714-21.428571 51.714286T512 987.428571t-51.714286-21.428571T438.857143 914.285714t21.428571-51.714285T512 841.142857t51.714286 21.428572 21.428571 51.714285zM182.857143 512q0 30.285714-21.428572 51.714286T109.714286 585.142857t-51.714286-21.428571T36.571429 512t21.428571-51.714286T109.714286 438.857143t51.714285 21.428571T182.857143 512z m686.857143 284.571429q0 29.714286-21.714286 51.428571t-51.428571 21.714286q-30.285714 0-51.714286-21.428572T723.428571 796.571429t21.428572-51.714286 51.714286-21.428572 51.714285 21.428572 21.428572 51.714286zM318.857143 227.428571q0 37.714286-26.857143 64.571429t-64.571429 26.857143-64.571428-26.857143-26.857143-64.571429 26.857143-64.571428 64.571428-26.857143 64.571429 26.857143 26.857143 64.571428z m668.571428 284.571429q0 30.285714-21.428571 51.714286T914.285714 585.142857t-51.714285-21.428571T841.142857 512t21.428572-51.714286T914.285714 438.857143t51.714286 21.428571T987.428571 512z m-365.714285-402.285714q0 45.714286-32 77.714285t-77.714286 32-77.714286-32-32-77.714285 32-77.714286T512 0t77.714286 32 32 77.714286z m302.857143 117.714285q0 53.142857-37.714286 90.571429T796.571429 355.428571q-53.142857 0-90.571429-37.428571T668.571429 227.428571q0-52.571429 37.428571-90.285714t90.571429-37.714286q52.571429 0 90.285714 37.714286t37.714286 90.285714z"  /></svg>