<?xml version="1.0" encoding="utf-8"?>
<!-- Generator: Adobe Illustrator 22.1.0, SVG Export Plug-In . SVG Version: 6.00 Build 0)  -->
<svg version="1.1" id="Layer_1" xmlns="http://www.w3.org/2000/svg" xmlns:xlink="http://www.w3.org/1999/xlink" x="0px" y="0px"
	 viewBox="0 0 512 512" style="enable-background:new 0 0 512 512;" xml:space="preserve">
<g>
	<path d="M31,256.7L31,256.7C31,256.7,31,256.7,31,256.7c0.1,1.8,0.3,3.5,0.6,5.1c0.1,0.8,0.2,1.6,0.3,2.5c0.1,0.8,0.2,1.7,0.3,2.7
		c0.2,1.1,0.3,2.3,0.5,3.6c0.4,2.5,0.8,5.3,1.3,8.3c0.6,2.8,1.2,5.9,1.9,9.2c0.3,1.6,0.8,3.3,1.2,5c0.4,1.7,0.9,3.5,1.4,5.3
		c0.3,0.9,0.4,1.8,0.8,2.7c0.3,0.9,0.6,1.8,0.9,2.8c0.3,0.9,1.2,3.8,1.8,5.7c0.2,0.5,0.3,1,0.5,1.5c0.2,0.5,0.4,1,0.5,1.5
		c0.2,0.5,0.7,2,1.1,3c0.8,2,1.5,4,2.3,6c0.9,2,1.7,4,2.6,6.1c0.4,1,0.9,2.1,1.3,3.1c0.4,1,1,2.1,1.5,3.1s2.1,4.2,3.1,6.3
		c1.1,2.1,2.3,4.2,3.5,6.3c0.6,1,1.2,2.1,1.8,3.2c0.6,1.1,1.3,2.1,1.9,3.1s2.6,4.2,3.9,6.3c5.6,8.3,11.7,16.5,18.6,24.3
		c6.9,7.7,14.4,15,22.3,21.8c8,6.6,16.4,12.7,24.9,18.1c8.6,5.3,17.4,9.8,26.1,13.7c2.2,0.9,4.4,1.8,6.5,2.7
		c1.1,0.4,2.1,0.9,3.2,1.3c1.1,0.4,2.2,0.8,3.2,1.2c1.1,0.4,4.2,1.5,6.4,2.2c2.1,0.6,4.2,1.2,6.3,1.9c1,0.3,2.1,0.6,3.1,0.9
		s2.1,0.5,3.1,0.8s4,1,6,1.5c2,0.4,3.9,0.8,5.8,1.1c1,0.2,1.9,0.4,2.8,0.5c0.5,0.1,0.9,0.2,1.4,0.3c0.4,0.1,0.9,0.1,1.4,0.2
		c1.9,0.3,3.7,0.5,5.4,0.8c0.9,0.1,1.7,0.3,2.6,0.4s1.7,0.2,2.6,0.3c0.8,0.1,3.3,0.3,4.9,0.4c1.6,0.1,3.1,0.3,4.6,0.3
		c0.1,0,0.2,0,0.3,0c0.3,15.3,12.7,27.6,28.1,27.6c0.2,0,0.5,0,0.7,0l0,0c0,0,0,0,0.1,0c1.7-0.1,3.4-0.3,5-0.6
		c0.8-0.1,1.6-0.2,2.5-0.3c0.8-0.1,1.7-0.2,2.7-0.3c1.1-0.2,2.3-0.3,3.6-0.5c2.5-0.4,5.3-0.8,8.3-1.3c2.8-0.6,5.9-1.2,9.2-1.9
		c1.6-0.3,3.3-0.8,5-1.2c1.7-0.4,3.5-0.9,5.3-1.4c0.9-0.3,1.8-0.4,2.7-0.8c0.9-0.3,1.8-0.6,2.8-0.9c0.9-0.3,3.8-1.2,5.7-1.8
		c0.5-0.2,1-0.3,1.5-0.5s1-0.4,1.5-0.5c0.5-0.2,2-0.7,3-1.1c2-0.8,4-1.5,6-2.3c2-0.9,4-1.7,6.1-2.6c1-0.4,2.1-0.9,3.1-1.3
		c1-0.4,2.1-1,3.1-1.5c1.1-0.5,4.2-2.1,6.3-3.1c2.1-1.1,4.2-2.3,6.3-3.5c1-0.6,2.1-1.2,3.2-1.8s2.1-1.3,3.1-1.9
		c1.1-0.6,4.2-2.6,6.3-3.9c8.3-5.5,16.5-11.7,24.3-18.6c7.7-6.9,15-14.4,21.8-22.3c6.6-8,12.7-16.4,18.1-24.9
		c5.3-8.6,9.8-17.4,13.7-26.1c0.9-2.2,1.8-4.4,2.7-6.5c0.4-1.1,0.9-2.1,1.3-3.2c0.4-1.1,0.8-2.2,1.1-3.2c0.4-1.1,1.5-4.2,2.2-6.4
		c0.6-2.1,1.2-4.2,1.9-6.3c0.3-1,0.6-2.1,0.9-3.1c0.3-1,0.5-2.1,0.8-3.1c0.3-1,1-4,1.5-6c0.4-2,0.8-3.9,1.1-5.8
		c0.2-1,0.4-1.9,0.5-2.8c0.1-0.5,0.2-0.9,0.3-1.4c0.1-0.4,0.1-0.9,0.2-1.4c0.3-1.8,0.5-3.7,0.8-5.4c0.1-0.9,0.3-1.7,0.4-2.6
		c0.1-0.9,0.2-1.7,0.3-2.6c0.1-0.8,0.3-3.3,0.4-4.9c0.1-1.6,0.3-3.1,0.3-4.6c0-0.2,0-0.4,0-0.7c15.5-0.1,28-12.6,28-28.1
		c0-0.2,0-0.5,0-0.7l0,0c0,0,0,0,0-0.1c-0.1-1.7-0.3-3.4-0.6-5c-0.1-0.8-0.2-1.6-0.3-2.5c-0.1-0.8-0.2-1.7-0.3-2.7
		c-0.2-1.1-0.3-2.3-0.5-3.6c-0.4-2.5-0.8-5.3-1.3-8.3c-0.6-2.8-1.2-5.9-1.9-9.2c-0.3-1.6-0.8-3.3-1.2-5c-0.4-1.7-0.9-3.5-1.4-5.3
		c-0.3-0.9-0.4-1.8-0.8-2.7s-0.6-1.8-0.9-2.8c-0.3-0.9-1.2-3.8-1.8-5.7c-0.1-0.5-0.3-1-0.5-1.5s-0.4-1-0.5-1.5c-0.2-0.5-0.7-2-1.1-3
		c-0.8-2-1.5-4-2.3-6c-0.9-2-1.7-4-2.6-6.1c-0.4-1-0.9-2.1-1.3-3.1c-0.4-1-1-2.1-1.5-3.1s-2.1-4.2-3.1-6.3c-1.1-2.1-2.3-4.2-3.5-6.3
		c-0.6-1-1.2-2.1-1.8-3.2c-0.6-1.1-1.3-2.1-1.9-3.1c-0.6-1.1-2.6-4.2-3.9-6.3c-5.5-8.3-11.7-16.5-18.6-24.3
		c-6.9-7.7-14.4-15-22.3-21.8c-8-6.6-16.4-12.7-24.9-18.1c-8.6-5.3-17.4-9.8-26.1-13.7c-2.2-0.9-4.4-1.8-6.5-2.7
		c-1.1-0.4-2.1-0.9-3.2-1.3s-2.2-0.8-3.2-1.1c-1.1-0.4-4.2-1.5-6.4-2.2c-2.1-0.6-4.2-1.2-6.3-1.9c-1-0.3-2.1-0.6-3.1-0.9
		c-1-0.3-2.1-0.5-3.1-0.8c-1-0.3-4-1-6-1.5c-2-0.4-3.9-0.8-5.8-1.1c-1-0.2-1.9-0.4-2.8-0.5c-0.5-0.1-0.9-0.2-1.4-0.3
		s-0.9-0.1-1.4-0.2c-1.9-0.3-3.7-0.5-5.4-0.8c-0.9-0.1-1.7-0.3-2.6-0.4c-0.9-0.1-1.7-0.2-2.6-0.3c-0.8-0.1-3.3-0.3-4.9-0.4
		c-1.6-0.1-3.1-0.3-4.6-0.3c-0.4,0-0.7,0-1.1,0C283.5,43.3,271,31,255.6,31c-0.2,0-0.5,0-0.7,0l0,0c0,0,0,0-0.1,0
		c-1.7,0.1-3.4,0.3-5,0.6c-0.8,0.1-1.6,0.2-2.5,0.3c-0.8,0.1-1.7,0.2-2.7,0.3c-1.1,0.2-2.3,0.3-3.6,0.5c-2.5,0.4-5.3,0.8-8.3,1.3
		c-2.8,0.6-5.9,1.2-9.2,1.9c-1.6,0.3-3.3,0.8-5,1.2c-1.7,0.4-3.5,0.9-5.3,1.4c-0.9,0.3-1.8,0.4-2.7,0.8c-0.9,0.3-1.8,0.6-2.8,0.9
		c-0.9,0.3-3.8,1.2-5.7,1.8c-0.5,0.2-1,0.3-1.5,0.5c-0.5,0.2-1,0.4-1.5,0.5c-0.5,0.2-2,0.7-3,1.1c-2,0.8-4,1.5-6,2.3
		c-2,0.9-4,1.7-6.1,2.6c-1,0.4-2.1,0.9-3.1,1.3c-1,0.4-2.1,1-3.1,1.5s-4.2,2.1-6.3,3.1c-2.1,1.1-4.2,2.3-6.3,3.5
		c-1,0.6-2.1,1.2-3.2,1.8c-1.1,0.6-2.1,1.3-3.1,1.9c-1.1,0.6-4.2,2.6-6.3,3.9c-8.3,5.6-16.5,11.7-24.3,18.6
		c-7.7,6.9-15,14.4-21.8,22.3c-6.6,8-12.7,16.4-18.1,24.9c-5.3,8.6-9.8,17.4-13.7,26.1c-0.9,2.2-1.8,4.4-2.7,6.5
		c-0.4,1.1-0.9,2.1-1.3,3.2c-0.4,1.1-0.8,2.2-1.1,3.2c-0.4,1.1-1.5,4.2-2.2,6.4c-0.6,2.1-1.2,4.2-1.9,6.3c-0.3,1-0.6,2.1-0.9,3.1
		c-0.3,1-0.5,2.1-0.8,3.1c-0.3,1-1,4-1.5,6c-0.4,2-0.8,3.9-1.1,5.8c-0.2,1-0.4,1.9-0.5,2.8c-0.1,0.5-0.2,0.9-0.3,1.4
		c-0.1,0.4-0.1,0.9-0.2,1.4c-0.3,1.8-0.5,3.7-0.8,5.4c-0.1,0.9-0.3,1.7-0.4,2.6c-0.1,0.9-0.2,1.7-0.3,2.6c-0.1,0.8-0.3,3.3-0.4,4.9
		c-0.1,1.6-0.3,3.1-0.3,4.6c0,0.3,0,0.5,0,0.7C43.1,228.4,31,240.8,31,256C31,256.2,31,256.5,31,256.7L31,256.7z M63.3,228.2
		c0-0.1,0-0.2,0.1-0.3c0.3-1.4,0.7-2.9,1.1-4.4s0.8-3,1.3-4.6c0.2-0.8,0.4-1.6,0.7-2.4c0.3-0.8,0.5-1.6,0.8-2.4
		c0.3-0.8,1.1-3.3,1.6-4.9c0.1-0.4,0.3-0.8,0.4-1.3c0.1-0.4,0.3-0.8,0.5-1.3c0.1-0.4,0.6-1.7,1-2.6s1.3-3.5,2.1-5.2
		c0.8-1.7,1.6-3.5,2.4-5.3c0.4-0.9,0.8-1.8,1.2-2.7c0.4-0.9,0.9-1.8,1.3-2.7c0.4-0.9,1.8-3.6,2.8-5.5c1-1.8,2.1-3.6,3.1-5.5
		c0.5-0.9,1-1.8,1.6-2.8c0.5-0.9,1.1-1.8,1.7-2.7c1.2-1.8,2.3-3.6,3.5-5.5c4.9-7.2,10.4-14.2,16.4-20.9c6.1-6.6,12.7-12.9,19.6-18.7
		c7-5.7,14.4-10.8,21.8-15.4c7.5-4.5,15.2-8.3,22.7-11.5c1.9-0.8,3.8-1.5,5.7-2.2c0.9-0.4,1.9-0.8,2.8-1.1c0.9-0.3,1.9-0.6,2.8-0.9
		c0.9-0.3,3.7-1.3,5.5-1.8c1.8-0.5,3.7-1,5.5-1.5c0.9-0.3,1.8-0.5,2.7-0.7s1.8-0.4,2.6-0.6s3.5-0.8,5.2-1.2c1.7-0.3,3.4-0.6,5-0.9
		c0.8-0.1,1.6-0.3,2.4-0.4c0.4-0.1,0.8-0.1,1.2-0.2c0.4-0.1,0.8-0.1,1.2-0.1c1.6-0.2,3.1-0.4,4.7-0.6c0.8-0.1,1.5-0.2,2.2-0.3
		c0.8-0.1,1.5-0.1,2.2-0.2s2.9-0.2,4.2-0.3c1.4-0.1,2.7-0.2,4-0.2c2.6-0.1,5-0.1,7.2-0.2c2.1,0.1,3.9,0.1,5.6,0.2
		c0.8,0,1.6,0.1,2.4,0.1c0.9,0.1,1.8,0.1,2.6,0.2c0.9,0.1,1.8,0.1,2.6,0.2c1.4,0.2,2.9,0.3,4.4,0.3c0.2,0,0.4,0,0.6,0
		c0.1,0,0.1,0,0.1,0l0,0c13.7-0.3,24.9-10.5,27-23.6c0.2,0.1,0.5,0.1,0.7,0.2c1.4,0.3,2.9,0.7,4.4,1.1c1.5,0.4,3,0.8,4.6,1.3
		c0.8,0.2,1.6,0.4,2.4,0.7c0.8,0.3,1.6,0.5,2.4,0.8s3.3,1.1,4.9,1.6c0.4,0.1,0.8,0.3,1.3,0.4c0.4,0.1,0.8,0.3,1.3,0.5
		c0.4,0.1,1.7,0.6,2.6,1c0.9,0.3,3.5,1.3,5.2,2.1c1.7,0.8,3.5,1.6,5.3,2.4c0.9,0.4,1.8,0.8,2.7,1.2c0.9,0.4,1.8,0.9,2.7,1.3
		c0.9,0.4,3.6,1.8,5.5,2.8c1.8,1,3.6,2.1,5.5,3.1c0.9,0.5,1.8,1,2.8,1.6c0.9,0.5,1.8,1.1,2.7,1.7c0.9,0.6,3.6,2.3,5.5,3.5
		c7.2,4.9,14.2,10.4,20.9,16.4c6.6,6.1,12.9,12.7,18.7,19.6c5.7,7,10.8,14.4,15.4,21.8c4.5,7.5,8.3,15.2,11.5,22.7
		c0.8,1.9,1.5,3.8,2.2,5.7c0.4,0.9,0.8,1.9,1.1,2.8c0.3,0.9,0.6,1.9,0.9,2.8c0.3,0.9,1.3,3.7,1.8,5.5c0.5,1.8,1,3.7,1.5,5.5
		c0.3,0.9,0.5,1.8,0.7,2.7c0.2,0.9,0.4,1.8,0.6,2.6c0.2,0.9,0.8,3.5,1.2,5.2c0.3,1.7,0.6,3.4,0.9,5c0.1,0.8,0.3,1.6,0.4,2.4
		c0.1,0.4,0.1,0.8,0.2,1.2c0.1,0.4,0.1,0.8,0.1,1.2c0.2,1.6,0.4,3.1,0.6,4.7c0.1,0.8,0.2,1.5,0.3,2.2c0.1,0.8,0.1,1.5,0.2,2.2
		c0.1,0.7,0.2,2.9,0.3,4.2c0.1,1.4,0.2,2.7,0.2,4c0.1,2.6,0.1,5,0.2,7.2c-0.1,2.1-0.1,3.9-0.2,5.6c0,0.8-0.1,1.6-0.1,2.4
		c-0.1,0.9-0.1,1.8-0.2,2.6c-0.1,0.9-0.1,1.8-0.2,2.6c-0.2,1.4-0.3,2.9-0.3,4.4c0,0.2,0,0.4,0,0.6c0,0.1,0,0.1,0,0.1l0,0
		c0.3,13.5,10.2,24.7,23.1,27c0,0.1-0.1,0.3-0.1,0.4c-0.3,1.4-0.7,2.9-1.1,4.4c-0.4,1.5-0.8,3-1.3,4.6c-0.2,0.8-0.4,1.6-0.7,2.4
		s-0.5,1.6-0.8,2.4c-0.3,0.8-1.1,3.3-1.6,4.9c-0.1,0.4-0.3,0.8-0.4,1.3c-0.1,0.4-0.3,0.8-0.5,1.3s-0.6,1.7-1,2.6
		c-0.3,0.9-1.3,3.5-2.1,5.2c-0.8,1.7-1.6,3.5-2.4,5.3c-0.4,0.9-0.8,1.8-1.2,2.7c-0.4,0.9-0.9,1.8-1.3,2.7c-0.4,0.9-1.8,3.6-2.8,5.5
		c-1,1.8-2.1,3.6-3.1,5.5c-0.5,0.9-1,1.8-1.6,2.8c-0.5,0.9-1.1,1.8-1.7,2.7c-0.6,0.9-2.3,3.6-3.5,5.5c-4.9,7.2-10.4,14.2-16.4,20.9
		c-6.1,6.6-12.7,12.9-19.6,18.7c-7,5.7-14.4,10.8-21.8,15.4c-7.5,4.5-15.2,8.3-22.7,11.5c-1.9,0.8-3.8,1.5-5.7,2.2
		c-0.9,0.4-1.9,0.8-2.8,1.1c-0.9,0.3-1.9,0.6-2.8,0.9c-0.9,0.3-3.7,1.3-5.5,1.8c-1.8,0.5-3.7,1-5.5,1.5c-0.9,0.3-1.8,0.5-2.7,0.7
		c-0.9,0.2-1.8,0.4-2.6,0.6c-0.9,0.2-3.5,0.8-5.2,1.2c-1.7,0.3-3.4,0.6-5,0.9c-0.8,0.1-1.6,0.3-2.4,0.4c-0.4,0.1-0.8,0.1-1.2,0.2
		c-0.4,0.1-0.8,0.1-1.2,0.1c-1.6,0.2-3.1,0.4-4.7,0.6c-0.8,0.1-1.5,0.2-2.2,0.3c-0.8,0.1-1.5,0.1-2.2,0.2c-0.7,0.1-2.9,0.2-4.2,0.3
		c-1.4,0.1-2.7,0.2-4,0.2c-2.6,0.1-5,0.1-7.2,0.2c-2.1-0.1-3.9-0.1-5.6-0.2c-0.8,0-1.6-0.1-2.4-0.1c-0.9-0.1-1.8-0.1-2.6-0.2
		c-0.9-0.1-1.8-0.1-2.6-0.2c-1.4-0.2-2.9-0.3-4.4-0.3c-0.2,0-0.4,0-0.6,0c-0.1,0-0.1,0-0.1,0l0,0c-13.6,0.3-24.8,10.4-27,23.5
		c-1.4-0.3-2.8-0.7-4.3-1.1c-1.5-0.4-3-0.8-4.6-1.3c-0.8-0.2-1.6-0.4-2.4-0.7c-0.8-0.3-1.6-0.5-2.4-0.8c-0.8-0.3-3.3-1.1-4.9-1.6
		c-0.4-0.1-0.8-0.3-1.3-0.4s-0.8-0.3-1.3-0.5s-1.7-0.6-2.6-1c-0.9-0.3-3.5-1.3-5.2-2.1c-1.7-0.8-3.5-1.6-5.3-2.4
		c-0.9-0.4-1.8-0.8-2.7-1.2s-1.8-0.9-2.7-1.3c-0.9-0.4-3.6-1.8-5.5-2.8c-1.8-1-3.6-2.1-5.5-3.1c-0.9-0.5-1.8-1-2.8-1.6
		c-0.9-0.5-1.8-1.1-2.7-1.7c-1.8-1.2-3.6-2.3-5.5-3.5c-7.2-4.9-14.2-10.4-20.9-16.4c-6.6-6.1-12.9-12.7-18.7-19.6
		c-5.7-7-10.8-14.4-15.4-21.8c-4.5-7.5-8.3-15.2-11.5-22.7c-0.8-1.9-1.5-3.8-2.2-5.7c-0.4-0.9-0.8-1.9-1.1-2.8
		c-0.3-0.9-0.6-1.9-0.9-2.8s-1.3-3.7-1.8-5.5c-0.5-1.8-1-3.7-1.5-5.5c-0.3-0.9-0.5-1.8-0.7-2.7c-0.2-0.9-0.4-1.8-0.6-2.6
		c-0.2-0.9-0.8-3.5-1.2-5.2c-0.3-1.7-0.6-3.4-0.9-5c-0.1-0.8-0.3-1.6-0.4-2.4c-0.1-0.4-0.1-0.8-0.2-1.2c-0.1-0.4-0.1-0.8-0.1-1.2
		c-0.2-1.6-0.4-3.1-0.6-4.7c-0.1-0.8-0.2-1.5-0.3-2.2c-0.1-0.8-0.1-1.5-0.2-2.2c-0.1-0.7-0.2-2.8-0.3-4.2c-0.1-1.4-0.2-2.7-0.2-4
		c-0.1-2.6-0.1-5-0.2-7.2c0.1-2.1,0.1-3.9,0.2-5.6c0-0.8,0.1-1.6,0.1-2.4c0.1-0.9,0.1-1.8,0.2-2.6c0.1-0.9,0.1-1.8,0.2-2.6
		c0.2-1.4,0.3-2.9,0.3-4.4c0-0.2,0-0.4,0-0.6c0-0.1,0-0.1,0-0.1l0,0C86.9,241.6,76.6,230.2,63.3,228.2L63.3,228.2z"/>
</g>
</svg>
